name rise34.3697peak60.0498fall86.3158.mot
datacolumns 19
datarows 24
range 15.91160500000000 15.94994300000000
endheader
time	ground_force1_vx	ground_force1_vy	ground_force1_vz	ground_force1_px	ground_force1_py	ground_force1_pz	ground_force2_vx	ground_force2_vy	ground_force2_vz	ground_force2_px	ground_force2_py	ground_force2_pz	ground_torque1_x	ground_torque1_y	ground_torque1_z	ground_torque2_x	ground_torque2_y	ground_torque2_z	
15.91160500000000	30.97084300000000	734.98822600000005	58.84797300000000	0.36363700000000	0.00000000000000	0.12823400000000	0.00000000000000	0.00000000000000	0.00000000000000	0.00000000000000	0.00000000000000	0.00000000000000	0.00000000000000	32.51733600000000	0.00000000000000	0.00000000000000	0.00000000000000	0.00000000000000	
15.91327600000000	30.19891600000000	737.31377599999996	59.02717000000000	0.36170200000000	0.00000000000000	0.12836500000000	0.00000000000000	0.00000000000000	0.00000000000000	0.00000000000000	0.00000000000000	0.00000000000000	0.00000000000000	32.63276800000000	0.00000000000000	0.00000000000000	0.00000000000000	0.00000000000000	
15.91493700000000	29.44332200000000	739.57791799999995	59.20755200000000	0.35980000000000	0.00000000000000	0.12849600000000	0.00000000000000	0.00000000000000	0.00000000000000	0.00000000000000	0.00000000000000	0.00000000000000	0.00000000000000	32.74843200000000	0.00000000000000	0.00000000000000	0.00000000000000	0.00000000000000	
15.91660300000000	28.70465100000000	741.77924700000005	59.38884100000000	0.35793400000000	0.00000000000000	0.12862700000000	0.00000000000000	0.00000000000000	0.00000000000000	0.00000000000000	0.00000000000000	0.00000000000000	0.00000000000000	32.86421100000000	0.00000000000000	0.00000000000000	0.00000000000000	0.00000000000000	
15.91827300000000	27.98340000000000	743.91632200000004	59.57070600000000	0.35610500000000	0.00000000000000	0.12875900000000	0.00000000000000	0.00000000000000	0.00000000000000	0.00000000000000	0.00000000000000	0.00000000000000	0.00000000000000	32.97995500000000	0.00000000000000	0.00000000000000	0.00000000000000	0.00000000000000	
15.91993600000000	27.27998300000000	745.98768800000005	59.75276500000000	0.35431500000000	0.00000000000000	0.12889100000000	0.00000000000000	0.00000000000000	0.00000000000000	0.00000000000000	0.00000000000000	0.00000000000000	0.00000000000000	33.09548500000000	0.00000000000000	0.00000000000000	0.00000000000000	0.00000000000000	
15.92160300000000	26.59473000000000	747.99188000000004	59.93458800000000	0.35256700000000	0.00000000000000	0.12902200000000	0.00000000000000	0.00000000000000	0.00000000000000	0.00000000000000	0.00000000000000	0.00000000000000	0.00000000000000	33.21059600000000	0.00000000000000	0.00000000000000	0.00000000000000	0.00000000000000	
15.92327500000000	25.92789000000000	749.92744300000004	60.11570800000000	0.35086300000000	0.00000000000000	0.12915300000000	0.00000000000000	0.00000000000000	0.00000000000000	0.00000000000000	0.00000000000000	0.00000000000000	0.00000000000000	33.32506000000000	0.00000000000000	0.00000000000000	0.00000000000000	0.00000000000000	
15.92494200000000	25.27963200000000	751.79293600000005	60.29562100000000	0.34920300000000	0.00000000000000	0.12928400000000	0.00000000000000	0.00000000000000	0.00000000000000	0.00000000000000	0.00000000000000	0.00000000000000	0.00000000000000	33.43862600000000	0.00000000000000	0.00000000000000	0.00000000000000	0.00000000000000	
15.92660900000000	24.65004900000000	753.58695100000000	60.47379500000000	0.34758900000000	0.00000000000000	0.12941400000000	0.00000000000000	0.00000000000000	0.00000000000000	0.00000000000000	0.00000000000000	0.00000000000000	0.00000000000000	33.55103100000000	0.00000000000000	0.00000000000000	0.00000000000000	0.00000000000000	
15.92827600000000	24.03916300000000	755.30811900000003	60.64967500000000	0.34602300000000	0.00000000000000	0.12954300000000	0.00000000000000	0.00000000000000	0.00000000000000	0.00000000000000	0.00000000000000	0.00000000000000	0.00000000000000	33.66199500000000	0.00000000000000	0.00000000000000	0.00000000000000	0.00000000000000	
15.92994200000000	23.44692500000000	756.95512399999996	60.82268700000000	0.34450500000000	0.00000000000000	0.12967200000000	0.00000000000000	0.00000000000000	0.00000000000000	0.00000000000000	0.00000000000000	0.00000000000000	0.00000000000000	33.77122700000000	0.00000000000000	0.00000000000000	0.00000000000000	0.00000000000000	
15.93161500000000	22.87322300000000	758.52671099999998	60.99224800000000	0.34303600000000	0.00000000000000	0.12979900000000	0.00000000000000	0.00000000000000	0.00000000000000	0.00000000000000	0.00000000000000	0.00000000000000	0.00000000000000	33.87843200000000	0.00000000000000	0.00000000000000	0.00000000000000	0.00000000000000	
15.93326900000000	22.31787900000000	760.02169900000001	61.15776500000000	0.34161800000000	0.00000000000000	0.12992500000000	0.00000000000000	0.00000000000000	0.00000000000000	0.00000000000000	0.00000000000000	0.00000000000000	0.00000000000000	33.98330500000000	0.00000000000000	0.00000000000000	0.00000000000000	0.00000000000000	
15.93494300000000	21.78066000000000	761.43898700000000	61.31864600000000	0.34025000000000	0.00000000000000	0.13005000000000	0.00000000000000	0.00000000000000	0.00000000000000	0.00000000000000	0.00000000000000	0.00000000000000	0.00000000000000	34.08554400000000	0.00000000000000	0.00000000000000	0.00000000000000	0.00000000000000	
15.93660700000000	21.26127800000000	762.77756499999998	61.47430300000000	0.33893300000000	0.00000000000000	0.13017300000000	0.00000000000000	0.00000000000000	0.00000000000000	0.00000000000000	0.00000000000000	0.00000000000000	0.00000000000000	34.18484400000000	0.00000000000000	0.00000000000000	0.00000000000000	0.00000000000000	
15.93827000000000	20.75939300000000	764.03652000000000	61.62415800000000	0.33766800000000	0.00000000000000	0.13029500000000	0.00000000000000	0.00000000000000	0.00000000000000	0.00000000000000	0.00000000000000	0.00000000000000	0.00000000000000	34.28090500000000	0.00000000000000	0.00000000000000	0.00000000000000	0.00000000000000	
15.93994200000000	20.27462100000000	765.21504700000003	61.76764700000000	0.33645400000000	0.00000000000000	0.13041500000000	0.00000000000000	0.00000000000000	0.00000000000000	0.00000000000000	0.00000000000000	0.00000000000000	0.00000000000000	34.37343100000000	0.00000000000000	0.00000000000000	0.00000000000000	0.00000000000000	
15.94160800000000	19.80653100000000	766.31245000000001	61.90422300000000	0.33529100000000	0.00000000000000	0.13053300000000	0.00000000000000	0.00000000000000	0.00000000000000	0.00000000000000	0.00000000000000	0.00000000000000	0.00000000000000	34.46213600000000	0.00000000000000	0.00000000000000	0.00000000000000	0.00000000000000	
15.94328200000000	19.35465900000000	767.32815400000004	62.03336500000000	0.33417900000000	0.00000000000000	0.13064900000000	0.00000000000000	0.00000000000000	0.00000000000000	0.00000000000000	0.00000000000000	0.00000000000000	0.00000000000000	34.54674200000000	0.00000000000000	0.00000000000000	0.00000000000000	0.00000000000000	
15.94493800000000	18.91850300000000	768.26170500000001	62.15457800000000	0.33311800000000	0.00000000000000	0.13076300000000	0.00000000000000	0.00000000000000	0.00000000000000	0.00000000000000	0.00000000000000	0.00000000000000	0.00000000000000	34.62698200000000	0.00000000000000	0.00000000000000	0.00000000000000	0.00000000000000	
15.94661000000000	18.49753100000000	769.11277900000005	62.26739700000000	0.33210700000000	0.00000000000000	0.13087500000000	0.00000000000000	0.00000000000000	0.00000000000000	0.00000000000000	0.00000000000000	0.00000000000000	0.00000000000000	34.70260400000000	0.00000000000000	0.00000000000000	0.00000000000000	0.00000000000000	
15.94829000000000	18.09118400000000	769.88118399999996	62.37139100000000	0.33114500000000	0.00000000000000	0.13098500000000	0.00000000000000	0.00000000000000	0.00000000000000	0.00000000000000	0.00000000000000	0.00000000000000	0.00000000000000	34.77337000000000	0.00000000000000	0.00000000000000	0.00000000000000	0.00000000000000	
15.94994300000000	17.69888000000000	770.56686100000002	62.46616800000000	0.33023200000000	0.00000000000000	0.13109300000000	0.00000000000000	0.00000000000000	0.00000000000000	0.00000000000000	0.00000000000000	0.00000000000000	0.00000000000000	34.83906000000000	0.00000000000000	0.00000000000000	0.00000000000000	0.00000000000000	
